<?xml version="1.0" encoding="UTF-8"?><svg id="Layer_1" xmlns="http://www.w3.org/2000/svg" viewBox="0 0 1080 1080"><g opacity=".6"><path d="M752.55,327.45c-56.77-56.77-132.26-88.04-212.55-88.04s-155.78,31.27-212.55,88.04-88.04,132.26-88.04,212.55,31.27,155.78,88.04,212.55c56.77,56.77,132.26,88.04,212.55,88.04s155.78-31.27,212.55-88.04,88.04-132.26,88.04-212.55-31.27-155.78-88.04-212.55ZM710.12,710.12c-45.44,45.44-105.86,70.47-170.12,70.47s-124.68-25.03-170.12-70.47c-45.44-45.44-70.47-105.86-70.47-170.12s25.03-124.68,70.47-170.12,105.86-70.47,170.12-70.47,124.68,25.03,170.12,70.47,70.47,105.86,70.47,170.12-25.03,124.68-70.47,170.12Z" fill="none"/><path d="M710.12,369.88c-45.44-45.44-105.86-70.47-170.12-70.47s-124.68,25.03-170.12,70.47-70.47,105.86-70.47,170.12,25.03,124.68,70.47,170.12c45.44,45.44,105.86,70.47,170.12,70.47s124.68-25.03,170.12-70.47,70.47-105.86,70.47-170.12-25.03-124.68-70.47-170.12ZM618.41,583.8c-24.19,43.31-78.91,58.8-122.21,34.61s-58.8-78.91-34.61-122.21c24.19-43.31,78.91-58.8,122.21-34.61,43.31,24.19,58.8,78.91,34.61,122.21Z" fill="#fff"/><path d="M540,127.01c-228.09,0-412.99,184.9-412.99,412.99s184.9,412.99,412.99,412.99,412.99-184.9,412.99-412.99S768.09,127.01,540,127.01ZM752.55,752.55c-56.77,56.77-132.26,88.04-212.55,88.04s-155.78-31.27-212.55-88.04c-56.77-56.77-88.04-132.26-88.04-212.55s31.27-155.78,88.04-212.55,132.26-88.04,212.55-88.04,155.78,31.27,212.55,88.04c56.77,56.77,88.04,132.26,88.04,212.55s-31.27,155.78-88.04,212.55Z" fill="#fff"/></g><path d="M684.83,257.63l-77.91,46.47c-8.59,5.12-8.41,17.63.32,22.5l79.2,44.24c8.73,4.88,19.47-1.53,19.33-11.53l-1.29-90.71c-.14-10-11.06-16.1-19.65-10.97Z" fill="#fff"/></svg>