<?xml version="1.0" encoding="UTF-8"?><svg id="Layer_1" xmlns="http://www.w3.org/2000/svg" viewBox="0 0 1080 1080"><path d="M563.07,577.87c-.22-.17-.45-.33-.67-.51-7.59-5.94-15.39-11.77-23.32-17.44-7.89,5.83-15.62,11.79-23.12,17.84-.24.19-.47.38-.71.56-6.86,5.53-13.73,11.31-20.45,17.18-15.76,13.81-30.76,28.3-44.87,43.35.33.17.66.34.99.51.67.34,1.33.69,1.99,1.03,1.2.62,2.4,1.23,3.59,1.86.41.21.82.43,1.23.65.41.22.82.43,1.23.65.66.35,1.33.7,1.99,1.06,1.49.79,2.97,1.6,4.45,2.4.54.3,1.09.59,1.63.89.47.26.95.52,1.42.78.47.26.95.53,1.42.79,1.81,1,3.61,2.01,5.4,3.03.44.25.89.5,1.33.75.55.31,1.1.63,1.66.95,2.25,1.29,4.5,2.6,6.74,3.92.19.11.39.22.58.34.06.03.12.07.17.1,2.48,1.47,4.94,2.95,7.4,4.45.44.27.88.53,1.32.8.4.25.8.5,1.2.74,1.89,1.16,3.77,2.33,5.64,3.51.46.29.93.58,1.39.87.35.22.7.44,1.05.67.39.25.78.5,1.17.75,1.67,1.07,3.34,2.14,5,3.22.61.4,1.21.8,1.82,1.19.18.12.36.24.55.36.49.32.98.64,1.47.97,1.26.83,2.51,1.67,3.76,2.51.6.4,1.2.8,1.8,1.21.78.53,1.56,1.06,2.33,1.59.56.38,1.11.76,1.67,1.15,1.03.71,2.07,1.42,3.1,2.14.43.3.86.6,1.28.9,1.11.78,2.22,1.55,3.33,2.34.12.09.24.17.37.26.75.53,1.5,1.08,2.25,1.61.64.46,1.28.92,1.92,1.38,1.24.9,2.48,1.8,3.72,2.71.56.41,1.11.81,1.67,1.22.55.4,1.09.8,1.64,1.2.61-.47,1.22-.93,1.84-1.39.53-.4,1.06-.81,1.59-1.21,1.11-.84,2.22-1.67,3.33-2.5.6-.45,1.21-.9,1.82-1.35.78-.58,1.57-1.17,2.35-1.74.28-.21.57-.41.85-.62.89-.65,1.78-1.3,2.68-1.95.35-.25.7-.51,1.05-.76,1.11-.8,2.22-1.59,3.34-2.38.49-.35.97-.69,1.45-1.04.69-.49,1.38-.97,2.06-1.45.57-.4,1.14-.8,1.71-1.19,1.26-.88,2.52-1.75,3.78-2.62.53-.36,1.06-.73,1.6-1.09.11-.08.22-.15.33-.23.51-.35,1.02-.7,1.53-1.05,1.84-1.25,3.69-2.48,5.54-3.71.19-.13.38-.25.57-.38.29-.19.59-.39.88-.58.48-.31.96-.62,1.43-.94,1.84-1.2,3.68-2.4,5.53-3.58.4-.25.79-.51,1.19-.77.32-.2.64-.4.95-.6,2.38-1.51,4.76-3.01,7.16-4.49.13-.08.26-.16.38-.24.36-.22.73-.44,1.09-.66,1.94-1.19,3.89-2.37,5.84-3.54.57-.34,1.13-.68,1.7-1.02.39-.23.77-.46,1.16-.69,2.02-1.19,4.04-2.38,6.07-3.55.1-.05.19-.11.28-.17.54-.31,1.07-.61,1.61-.92.58-.33,1.15-.66,1.73-.99,1.35-.77,2.71-1.54,4.06-2.29.61-.34,1.23-.69,1.85-1.03.79-.44,1.57-.88,2.35-1.31,0,0,0,0,0,0,1.35-.74,2.7-1.47,4.05-2.2.39-.21.78-.42,1.17-.63.2-.11.39-.21.59-.32-20.86-21.67-43.62-42.2-68.03-61.3Z" fill="#b5531e"/><path d="M621.06,239.46c-24.99-25.13-52.51-48.55-82.26-70-28.81,21.41-55.4,44.7-79.53,69.6,23.13,14.93,50.34,34.93,81.21,61.67,30.59-26.5,57.59-46.38,80.59-61.27Z" fill="#b5531e"/><path d="M539.26,381.37c-33.88,30.34-63.96,64.21-89.81,101.14,12.09,10.99,22.74,22.75,31.86,35.17.31-.24.62-.48.93-.72,2.72-2.13,5.46-4.24,8.23-6.34.18-.14.36-.27.54-.41,2.66-2.01,5.34-4.01,8.04-5.99.53-.39,1.06-.79,1.6-1.18,2.74-2.01,5.5-4,8.28-5.98.57-.4,1.13-.8,1.7-1.21,2.89-2.04,5.78-4.07,8.69-6.08.73-.5,1.47-.97,2.22-1.41.27-.16.55-.29.82-.44.49-.27.98-.54,1.48-.78.33-.16.68-.3,1.02-.45.45-.2.89-.41,1.35-.59.37-.14.74-.26,1.11-.39.44-.15.87-.32,1.31-.46.39-.12.78-.21,1.17-.32.43-.12.86-.25,1.3-.35.4-.09.8-.16,1.21-.23.43-.08.86-.18,1.29-.24.41-.06.83-.1,1.24-.15.42-.05.85-.11,1.27-.14.42-.03.84-.04,1.26-.06.42-.02.84-.05,1.27-.05.05,0,.09,0,.14,0,.43,0,.86.03,1.28.05.36.01.72.01,1.07.04.48.03.96.09,1.45.15.35.04.7.06,1.04.11.49.07.97.17,1.46.26.34.06.67.11,1.01.18.5.11.99.25,1.48.38.32.08.64.15.96.25.5.15,1,.33,1.5.5.3.1.6.19.9.31.52.2,1.02.42,1.53.64.27.12.55.22.82.35.55.26,1.09.55,1.62.83.22.12.44.22.66.34.75.42,1.49.87,2.22,1.36,1.93,1.28,3.85,2.58,5.77,3.88.67.45,1.33.91,2,1.37,1.25.85,2.49,1.7,3.74,2.56.79.55,1.58,1.1,2.37,1.66,1.11.78,2.23,1.55,3.33,2.33.84.59,1.68,1.19,2.52,1.79,1.05.75,2.1,1.49,3.15,2.25.87.62,1.73,1.25,2.59,1.88,1.01.73,2.02,1.47,3.03,2.21.88.64,1.75,1.29,2.63,1.94.98.73,1.97,1.46,2.95,2.19.88.66,1.76,1.32,2.64,1.99.96.73,1.93,1.46,2.89,2.19.88.67,1.75,1.34,2.62,2.01.57.44,1.14.87,1.71,1.31,8.98-12.75,19.57-24.82,31.65-36.12-27.05-38.01-58.57-72.7-94.09-103.53Z" fill="#b5531e"/><path d="M688.75,444.48c27.51-15.79,55.83-27.12,80.6-35.13-8.37-57.87-42.86-111.91-62.64-138.94-20.86,9.27-58.17,29.51-108.69,71.46,33.82,31.04,64.17,65.4,90.72,102.61Z" fill="#b5531e"/><path d="M657.29,561.24c-.07.1-.15.2-.22.3-.89,1.29-1.82,2.71-2.77,4.22,14.76,13.81,28.8,28.14,42.08,42.91,46.67-18.73,95.27-31.91,145.07-39.38.08-40.64-9.14-79.59-16.5-104.18-31.11,7.28-83.21,23.13-125.55,54.09-17.34,12.68-31.51,26.83-42.1,42.05Z" fill="#b5531e"/><path d="M481.83,340.97c-49.73-41.14-86.53-61.16-107.3-70.42-19.63,27.41-53.7,81.52-62.62,137.48,24.82,7.78,53.59,18.94,81.67,34.7,25.79-36.77,55.3-70.83,88.24-101.77Z" fill="#b5531e"/><path d="M700.81,681.29c-2.9,1.3-5.8,2.63-8.68,3.97-6.32,2.96-12.58,6.04-18.79,9.22-26.61,13.64-52.16,29.33-76.41,46.91,42.95,39.67,80.12,84.61,111,134.19,42.83-25.83,79.45-61.12,107-103.41,26.55-40.75,43.52-86.42,49.98-133.92-2.11-.54-4.14-1.26-6.06-2.16-54.67,7.5-107.74,22.65-158.05,45.18Z" fill="#b5531e"/><path d="M488.95,742.24c-33.85-23.76-70.1-43.87-108.16-59.92-52.78-22.27-108.45-36.56-165.59-42.5,6.47,46.05,22.8,90.26,48.11,129.89,1.69,2.64,3.41,5.26,5.18,7.86,28.72,42.28,66.56,77.17,110.53,102.2,30.31-50.71,67.12-96.76,109.94-137.53Z" fill="#b5531e"/><path d="M383.83,609.68c14.2-16.24,29.32-31.97,45.25-47.07-11.16-16.4-26.41-31.58-45.36-45.09,0,0,0,0,0,0-35.72-25.45-77.87-40.4-108.46-48.69-5.33-.03-10.37-1.27-14.86-3.46-7.65,25.59-17.26,66.59-16.38,108.84,47.86,6.6,94.7,18.48,139.81,35.46Z" fill="#b5531e"/><path d="M543.28,785.36c-39.15,36.09-72.93,76.98-100.84,122.13,1.13.36,2.27.72,3.41,1.07.58.18,1.17.36,1.75.54,2.42.72,4.84,1.41,7.27,2.08.54.15,1.09.29,1.63.43,1.95.52,3.91,1.02,5.87,1.51.74.18,1.47.36,2.21.54,2.17.52,4.34,1.02,6.52,1.49.31.07.63.14.94.21,2.46.53,4.94,1.02,7.41,1.49.7.13,1.4.26,2.1.39,1.91.35,3.83.68,5.74.99.69.11,1.38.23,2.07.34,2.49.39,4.99.76,7.49,1.09.39.05.77.09,1.16.14,2.16.28,4.33.54,6.49.77.75.08,1.5.16,2.26.24,2.06.21,4.12.4,6.18.57.52.04,1.04.09,1.56.13,2.53.2,5.06.36,7.6.5.64.03,1.27.06,1.91.09,2,.1,4,.18,6,.24.73.02,1.47.05,2.2.06,2.57.06,5.15.1,7.73.1,2.01,0,4.02-.03,6.03-.06.52,0,1.03-.02,1.55-.03,1.89-.04,3.77-.1,5.65-.17.13,0,.26,0,.39-.01,1.99-.08,3.97-.19,5.96-.3.51-.03,1.03-.06,1.54-.1,1.79-.11,3.58-.24,5.37-.39.22-.02.44-.03.66-.05,1.97-.16,3.93-.35,5.88-.55.51-.05,1.02-.11,1.52-.16,1.71-.18,3.42-.37,5.13-.58.3-.04.59-.07.89-.11,1.94-.24,3.88-.51,5.81-.78.5-.07,1-.15,1.49-.22,1.66-.25,3.31-.5,4.96-.77.35-.06.7-.11,1.05-.17,1.92-.32,3.83-.66,5.74-1.02.48-.09.97-.18,1.45-.28,1.61-.31,3.22-.63,4.83-.96.39-.08.78-.16,1.16-.24,1.9-.4,3.79-.82,5.69-1.26.46-.11.92-.22,1.37-.32,1.59-.37,3.18-.76,4.77-1.16.41-.1.81-.2,1.22-.31,1.89-.48,3.77-.98,5.65-1.5.42-.12.84-.24,1.27-.36,1.58-.44,3.16-.9,4.73-1.36.43-.13.85-.25,1.28-.38,1.87-.56,3.74-1.14,5.6-1.74.38-.12.77-.25,1.15-.38,1.58-.51,3.16-1.04,4.74-1.58.27-.09.55-.19.82-.28-28.46-44.3-62.65-84.33-102.05-119.56Z" fill="#b5531e"/></svg>