<?xml version="1.0" encoding="UTF-8"?><svg id="Layer_1" xmlns="http://www.w3.org/2000/svg" viewBox="0 0 1080 1080"><path d="M674.42,241.06c-38.86-44.03-84.6-83.66-135.95-117.86-50.35,34.59-95.1,74.5-132.95,118.66" fill="none" stroke="#b5531e" stroke-linecap="round" stroke-linejoin="round" stroke-width="75.68"/><path d="M902.17,597.39c-1.1,142.14-85.86,265.9-207.04,324.08-47.13,22.64-99.78,35.33-155.16,35.33-52.26,0-102.11-11.3-147.2-31.59-123.76-55.7-211.67-179.12-214.93-322.4,11.47.43,22.88,1.18,34.18,2.23,64.04,5.95,125.25,21.68,182.1,45.67,51.35,21.66,99.16,50.06,142.33,84.12,2.18,1.7,4.34,3.41,6.48,5.16,2.16-1.8,4.32-3.58,6.5-5.37h.02c41.62-33.87,87.76-62.43,137.34-84.64,58.21-26.07,121.19-43.39,187.27-50.29,9.31-.99,18.68-1.75,28.11-2.32Z" fill="none" stroke="#b5531e" stroke-linecap="round" stroke-linejoin="round" stroke-width="68.6"/><path d="M902.17,597.39c-1.1,142.14-85.86,265.9-207.04,324.08-47.13,22.64-99.78,35.33-155.16,35.33-52.26,0-102.11-11.3-147.2-31.59,37.71-71.11,88.91-133.98,150.17-185.21,2.16-1.8,4.32-3.58,6.5-5.37h.02c41.62-33.87,87.76-62.43,137.34-84.64,58.21-26.07,121.19-43.39,187.27-50.29,9.31-.99,18.68-1.75,28.11-2.32Z" fill="none" stroke="#b5531e" stroke-linecap="round" stroke-linejoin="round" stroke-width="68.6"/><path d="M695.13,921.46c-47.13,22.64-99.78,35.33-155.16,35.33-52.26,0-102.11-11.3-147.2-31.59-123.76-55.7-211.67-179.12-214.93-322.4,11.47.43,22.88,1.18,34.18,2.23,64.04,5.95,125.25,21.68,182.1,45.67,51.35,21.66,99.16,50.06,142.33,84.12,2.18,1.7,4.34,3.41,6.48,5.16,61.66,49.98,113.5,111.56,152.19,181.47Z" fill="none" stroke="#b5531e" stroke-linecap="round" stroke-linejoin="round" stroke-width="68.6"/><path d="M583.55,550.34h-.02c-14.39-11.25-29.33-22.04-44.76-32.31-15.32,10.53-30.1,21.54-44.35,33.05h-.02c-7.55,6.07-14.94,12.28-22.18,18.61-3.86-8.58-8.35-16.65-13.36-24.27-14.78-22.4-34.13-40.78-55.22-55.82,35.11-56.13,79.18-106.4,130.24-148.88,1.66-1.41,3.36-2.8,5.04-4.17,2.28,1.8,4.53,3.6,6.77,5.44,52.27,42.45,97.41,92.94,133.45,149.52-18.88,13.81-36.24,30.36-50.01,50.15h-.02" fill="none" stroke="#b5531e" stroke-linecap="round" stroke-linejoin="round" stroke-width="68.6"/><path d="M212.01,605.04c-12.01-88.17,25.69-179.27,25.69-179.27,0,0,93.37,12.13,165.93,63.83" fill="none" stroke="#b5531e" stroke-linecap="round" stroke-linejoin="round" stroke-width="68.6"/><path d="M686.79,649.99c-49.58,22.21-95.72,50.77-137.34,84.64h-.02c-4.3.14-8.64.19-12.98.21-43.17-34.06-90.98-62.46-142.33-84.12,23.29-28.8,49.43-55.89,78.1-81.02,7.24-6.33,14.63-12.54,22.18-18.61h.02c14.25-11.51,29.04-22.52,44.35-33.05,15.44,10.27,30.37,21.06,44.76,32.31h.02c38.52,30.08,73.16,63.47,103.25,99.64Z" fill="none" stroke="#b5531e" stroke-linecap="round" stroke-linejoin="round" stroke-width="68.6"/><path d="M629.11,541.65c-6.05,8.71-13.27,21.57-17.77,31.57" fill="none" stroke="#b5531e" stroke-linecap="round" stroke-linejoin="round" stroke-width="68.6"/><path d="M679.14,491.5c72.91-53.3,168.57-65.74,168.57-65.74,0,0,36.19,87.47,26.34,173.94-.19,1.78-.41,3.55-.65,5.33" fill="none" stroke="#b5531e" stroke-linecap="round" stroke-linejoin="round" stroke-width="68.6"/><path d="M805.53,434.54c0-105.78-87.13-204.77-87.13-204.77,0,0-65.85,13.63-177.41,116.51" fill="none" stroke="#b5531e" stroke-linecap="round" stroke-linejoin="round" stroke-width="68.6"/><path d="M275.43,434.54c0-102.39,87.13-204.77,87.13-204.77,0,0,65.85,13.63,177.41,116.51" fill="none" stroke="#b5531e" stroke-linecap="round" stroke-linejoin="round" stroke-width="68.6"/></svg>